# xmcd
#
# Track frame offsets:
#	183
#	12610
#	25983
#	43395
#	52493
#	69928
#	82538
#	94980
#	105840
#	121163
#	133270
#	145873
#	156298
#	174820
#	187978
#	199023
#
# Disc length: 2833 seconds
#
# Revision: 1
# Processed by: cddbd v1.5.2PL0 Copyright (c) Steve Scherf et al.
# Submitted via: audiograbber 1.83.01
#
DISCID=d60b0f10
DTITLE=Sammy Davis Jnr - The Very Best Of Sammy Davis Jnr [Disc 2]
DYEAR=1900
DGENRE=Jazz
TTITLE0=OO-Shoo-Be-Doo-Be
TTITLE1=Be Myself
TTITLE2=For All We Know
TTITLE3=This Little Girl Of Mine
TTITLE4=Gee Baby, Ain't I Good To You
TTITLE5=Mam'selle
TTITLE6=Don'cha Go 'Way Mad
TTITLE7=It Might As Well Rain
TTITLE8=Begin The Beguine
TTITLE9=All Of You
TTITLE10=I Concentrate On You
TTITLE11=You Do Something To Me
TTITLE12=Why Shouldn't I?
TTITLE13=Get Out Of Town
TTITLE14=Night And Day
TTITLE15=You're Sensational
EXTD=
EXTT0=
EXTT1=
EXTT2=
EXTT3=
EXTT4=
EXTT5=
EXTT6=
EXTT7=
EXTT8=
EXTT9=
EXTT10=
EXTT11=
EXTT12=
EXTT13=
EXTT14=
EXTT15=
PLAYORDER=
